<?xml version="1.0" encoding="UTF-8" standalone="no"?>
<svg width="428px" height="84px" viewBox="0 0 428 84" version="1.1" xmlns="http://www.w3.org/2000/svg" xmlns:xlink="http://www.w3.org/1999/xlink" xmlns:sketch="http://www.bohemiancoding.com/sketch/ns">
    <!-- Generator: bin/sketchtool 1.4 (311) - http://www.bohemiancoding.com/sketch -->
    <title>logo</title>
    <desc>Created with bin/sketchtool.</desc>
    <defs></defs>
    <g id="Page" stroke="none" stroke-width="1" fill="none" fill-rule="evenodd" sketch:type="MSPage">
        <g id="Landing" sketch:type="MSArtboardGroup" transform="translate(-506.000000, -349.000000)">
            <g id="logo-+-logo" sketch:type="MSLayerGroup" transform="translate(506.000000, 349.000000)">
                <g id="logo" sketch:type="MSShapeGroup">
                    <g id="Group">
                        <g id="Shape">
                            <path d="M23.028,46.066 C22.78,43.061 22.722,40.057 23.013,37.054 C23.146,35.683 22.933,35.442 21.516,35.261 C16.794,34.658 12.074,34.046 7.353,33.437 C6.136,33.28 4.92,33.117 3.701,32.972 C3.356,32.931 3.004,32.929 2.656,32.937 C1.842,32.954 1.43,33.339 1.376,34.138 C1.307,35.163 1.307,36.195 1.183,37.213 C0.834,40.067 1.017,42.923 1.103,45.778 C1.135,46.835 1.26,47.891 1.372,48.944 C1.414,49.335 1.529,49.72 1.631,50.103 C1.721,50.443 2.271,50.674 2.871,50.602 C3.954,50.473 5.034,50.318 6.116,50.177 C8.971,49.806 11.826,49.434 14.682,49.069 C17.057,48.765 19.433,48.473 21.808,48.168 C22.031,48.139 22.252,48.069 22.462,47.987 C22.833,47.842 23.045,47.584 23.031,47.171 C23.018,46.803 23.028,46.435 23.028,46.066 L23.028,46.066 Z" fill="#A2C63A"></path>
                            <path d="M27.054,22.247 C28.342,19.521 29.794,16.89 31.547,14.435 C32.347,13.314 32.283,12.999 31.147,12.134 C27.359,9.251 23.578,6.361 19.794,3.473 C18.819,2.729 17.847,1.979 16.863,1.244 C16.585,1.036 16.281,0.858 15.975,0.691 C15.262,0.299 14.712,0.426 14.266,1.091 C13.694,1.944 13.178,2.838 12.561,3.657 C10.832,5.955 9.562,8.519 8.21,11.035 C7.709,11.966 7.29,12.943 6.86,13.911 C6.701,14.27 6.608,14.662 6.505,15.044 C6.413,15.383 6.774,15.858 7.329,16.096 C8.332,16.526 9.344,16.932 10.352,17.351 C13.01,18.457 15.669,19.562 18.324,20.674 C20.533,21.598 22.737,22.534 24.946,23.457 C25.153,23.543 25.381,23.593 25.603,23.627 C25.997,23.687 26.31,23.57 26.504,23.205 C26.677,22.88 26.87,22.566 27.054,22.247 L27.054,22.247 Z" fill="#E31E25"></path>
                            <path d="M31.39,69.029 C29.673,66.551 28.121,63.978 26.871,61.231 C26.301,59.978 25.995,59.875 24.678,60.427 C20.288,62.266 15.893,64.095 11.501,65.929 C10.369,66.402 9.234,66.869 8.106,67.353 C7.787,67.49 7.481,67.664 7.183,67.845 C6.487,68.267 6.322,68.807 6.675,69.525 C7.128,70.447 7.644,71.341 8.045,72.284 C9.17,74.93 10.756,77.312 12.258,79.741 C12.814,80.64 13.45,81.492 14.074,82.348 C14.306,82.666 14.598,82.941 14.878,83.222 C15.126,83.471 15.718,83.396 16.201,83.034 C17.074,82.38 17.932,81.707 18.799,81.044 C21.086,79.295 23.372,77.545 25.663,75.802 C27.568,74.352 29.48,72.911 31.384,71.459 C31.563,71.323 31.719,71.151 31.86,70.975 C32.109,70.664 32.164,70.334 31.945,69.984 C31.749,69.672 31.574,69.348 31.39,69.029 L31.39,69.029 Z" fill="#3596D2"></path>
                        </g>
                        <g transform="translate(395.000000, 0.000000)" id="Shape">
                            <path d="M10.605,45.94 C10.846,42.935 10.902,39.931 10.619,36.928 C10.49,35.557 10.697,35.316 12.073,35.135 C16.659,34.532 21.244,33.92 25.829,33.311 C27.011,33.154 28.193,32.991 29.377,32.846 C29.712,32.805 30.054,32.803 30.392,32.811 C31.183,32.828 31.583,33.213 31.636,34.012 C31.703,35.037 31.703,36.069 31.824,37.087 C32.163,39.941 31.986,42.797 31.901,45.652 C31.87,46.709 31.748,47.765 31.639,48.818 C31.599,49.209 31.486,49.594 31.388,49.977 C31.301,50.317 30.766,50.548 30.183,50.476 C29.131,50.347 28.082,50.192 27.031,50.052 C24.258,49.681 21.485,49.309 18.711,48.944 C16.404,48.64 14.096,48.348 11.79,48.043 C11.574,48.014 11.358,47.944 11.155,47.862 C10.795,47.717 10.588,47.459 10.602,47.046 C10.615,46.676 10.605,46.308 10.605,45.94 L10.605,45.94 Z" fill="#F8A71D"></path>
                            <path d="M9.979,45.921 C10.227,42.916 10.284,39.912 9.994,36.909 C9.861,35.538 10.074,35.297 11.491,35.116 C16.211,34.513 20.93,33.901 25.649,33.292 C26.866,33.135 28.082,32.972 29.3,32.827 C29.645,32.786 29.997,32.784 30.345,32.792 C31.159,32.809 31.571,33.194 31.625,33.993 C31.694,35.018 31.694,36.05 31.818,37.068 C32.166,39.922 31.984,42.778 31.898,45.633 C31.866,46.69 31.741,47.746 31.629,48.799 C31.587,49.19 31.472,49.575 31.37,49.958 C31.28,50.298 30.73,50.529 30.13,50.457 C29.047,50.328 27.968,50.173 26.886,50.032 C24.032,49.661 21.178,49.289 18.323,48.924 C15.949,48.62 13.573,48.329 11.199,48.023 C10.976,47.994 10.755,47.924 10.545,47.842 C10.174,47.697 9.962,47.439 9.976,47.026 C9.99,46.657 9.979,46.289 9.979,45.921 L9.979,45.921 Z" fill="#F2A91D"></path>
                            <path d="M5.955,22.102 C4.668,19.376 3.216,16.745 1.463,14.29 C0.663,13.169 0.727,12.854 1.863,11.989 C5.65,9.106 9.43,6.216 13.213,3.328 C14.188,2.584 15.16,1.834 16.143,1.099 C16.421,0.891 16.725,0.713 17.03,0.546 C17.743,0.154 18.293,0.281 18.739,0.946 C19.311,1.799 19.827,2.693 20.443,3.512 C22.171,5.81 23.441,8.374 24.793,10.89 C25.294,11.821 25.713,12.798 26.142,13.766 C26.301,14.125 26.394,14.517 26.497,14.899 C26.589,15.238 26.228,15.713 25.673,15.951 C24.671,16.381 23.658,16.787 22.651,17.206 C19.994,18.312 17.336,19.417 14.681,20.529 C12.473,21.453 10.27,22.389 8.061,23.312 C7.854,23.398 7.626,23.448 7.404,23.482 C7.011,23.542 6.697,23.425 6.503,23.06 C6.331,22.735 6.138,22.421 5.955,22.102 L5.955,22.102 Z" fill="#009481"></path>
                            <path d="M1.62,68.884 C3.337,66.406 4.888,63.832 6.138,61.087 C6.708,59.834 7.013,59.731 8.331,60.283 C12.72,62.122 17.113,63.951 21.504,65.785 C22.636,66.258 23.771,66.725 24.898,67.209 C25.217,67.346 25.523,67.52 25.821,67.701 C26.517,68.123 26.682,68.663 26.329,69.381 C25.877,70.303 25.361,71.197 24.959,72.14 C23.834,74.786 22.249,77.168 20.747,79.597 C20.191,80.496 19.555,81.348 18.932,82.204 C18.701,82.522 18.408,82.797 18.129,83.078 C17.881,83.327 17.289,83.252 16.806,82.89 C15.933,82.236 15.075,81.562 14.209,80.9 C11.923,79.151 9.637,77.402 7.347,75.658 C5.443,74.208 3.531,72.767 1.628,71.315 C1.45,71.179 1.293,71.007 1.152,70.831 C0.903,70.52 0.848,70.191 1.067,69.84 C1.261,69.527 1.436,69.203 1.62,68.884 L1.62,68.884 Z" fill="#E42D8A"></path>
                        </g>
                        <g transform="translate(44.000000, 15.000000)" id="Shape" fill="#231F20">
                            <path d="M0.179,44.609 L0.179,13.629 C0.179,9.789 1.344,6.651 3.674,4.216 C6.003,1.781 9.026,0.563 12.741,0.563 C17.149,0.563 20.538,2.589 22.91,6.64 C24.358,4.457 25.911,2.899 27.569,1.964 C29.227,1.03 31.273,0.563 33.708,0.563 C37.57,0.563 40.529,1.781 42.586,4.216 C44.643,6.651 45.672,10.156 45.672,14.732 L45.672,44.609 L32.89,44.609 L32.89,16.652 C32.89,15.266 32.78,14.349 32.56,13.897 C32.34,13.446 31.893,13.22 31.222,13.22 C29.963,13.22 29.333,14.291 29.333,16.431 L29.333,44.609 L16.55,44.609 L16.55,16.652 C16.55,15.288 16.434,14.375 16.204,13.912 C15.973,13.451 15.521,13.22 14.85,13.22 C13.591,13.22 12.961,14.364 12.961,16.652 L12.961,44.609 L0.179,44.609 L0.179,44.609 Z"></path>
                            <path d="M56.597,58.367 L56.597,48.134 C58.192,48.805 59.588,49.141 60.784,49.141 C64.604,49.141 67.081,46.989 68.214,42.687 C66.157,43.904 64.142,44.513 62.169,44.513 C59.251,44.513 56.848,43.426 54.959,41.254 C53.07,39.082 52.125,36.317 52.125,32.959 L52.125,13.219 L63.9,13.219 L63.9,30.094 C63.9,31.962 64.676,32.896 66.23,32.896 C67.72,32.896 68.466,31.868 68.466,29.811 L68.466,13.22 L80.241,13.22 L80.241,41.24 C80.241,46.466 78.772,50.684 75.833,53.896 C72.328,57.716 68.088,59.626 63.114,59.626 C60.931,59.627 58.759,59.207 56.597,58.367 L56.597,58.367 Z"></path>
                            <path d="M131.213,44.609 L119.438,44.609 L119.438,26.883 C119.438,25.078 118.693,24.175 117.202,24.175 C115.733,24.175 114.998,25.078 114.998,26.883 L114.998,44.609 L103.223,44.609 L103.223,27.104 C103.223,23.011 104.577,19.564 107.284,16.762 C109.992,13.959 113.308,12.558 117.233,12.558 C121.724,12.558 125.324,14.186 128.032,17.439 C130.151,19.978 131.212,23.515 131.212,28.048 L131.212,44.609 L131.213,44.609 Z"></path>
                            <path d="M168.931,30.819 L151.08,30.819 C150.807,29.916 150.671,29.088 150.671,28.331 C150.671,27.282 150.86,26.253 151.237,25.246 L157.219,25.246 C156.799,22.916 155.487,21.751 153.284,21.751 C151.815,21.751 150.618,22.376 149.695,23.625 C148.771,24.874 148.31,26.474 148.31,28.426 C148.31,30.462 148.756,32.11 149.648,33.369 C150.54,34.628 151.71,35.258 153.158,35.258 C154.333,35.258 155.467,34.671 156.558,33.495 L163.264,41.554 C160.136,44.009 156.663,45.238 152.843,45.238 C148.183,45.238 144.269,43.675 141.099,40.547 C137.929,37.419 136.345,33.547 136.345,28.929 C136.345,24.332 137.945,20.45 141.146,17.28 C144.347,14.11 148.277,12.526 152.937,12.526 C157.491,12.526 161.316,14.074 164.413,17.17 C167.509,20.266 169.057,24.08 169.057,28.615 C169.057,29.077 169.014,29.812 168.931,30.819 L168.931,30.819 Z"></path>
                            <path d="M173.811,13.661 L185.585,13.661 L185.585,30.567 C185.585,31.89 185.722,32.808 185.995,33.322 C186.268,33.836 186.761,34.093 187.474,34.093 C188.797,34.093 189.457,32.918 189.457,30.567 L189.457,13.661 L201.232,13.661 L201.232,30.567 C201.232,31.89 201.374,32.808 201.657,33.322 C201.94,33.836 202.439,34.093 203.152,34.093 C204.454,34.093 205.104,32.918 205.104,30.567 L205.104,13.661 L216.879,13.661 L216.879,32.991 C216.879,36.517 215.692,39.513 213.321,41.979 C210.95,44.446 208.074,45.679 204.694,45.679 C201.21,45.679 198.083,44.21 195.312,41.271 C192.248,44.21 189.162,45.679 186.057,45.679 C182.132,45.679 178.983,44.252 176.612,41.397 C174.744,39.152 173.81,35.909 173.81,31.669 L173.81,13.661 L173.811,13.661 Z"></path>
                            <path d="M250.977,1.633 L250.977,27.356 C250.977,31.533 252.477,33.621 255.478,33.621 C256.758,33.621 257.844,33.186 258.737,32.314 C259.628,31.444 260.076,30.389 260.076,29.15 C260.076,27.87 259.655,26.794 258.817,25.922 C257.977,25.052 256.948,24.615 255.732,24.615 C254.871,24.615 253.884,24.993 252.772,25.749 L252.772,12.778 C254.157,12.651 255.207,12.589 255.92,12.589 C260.348,12.589 264.141,14.184 267.302,17.374 C270.459,20.565 272.039,24.405 272.039,28.897 C272.039,33.494 270.434,37.366 267.222,40.515 C264.01,43.663 260.064,45.237 255.384,45.237 C253.033,45.237 250.741,44.723 248.506,43.694 C246.271,42.665 244.429,41.28 242.98,39.538 C240.461,36.515 239.202,32.601 239.202,27.794 L239.202,1.631 L250.977,1.631 L250.977,1.633 Z"></path>
                            <path d="M292.093,12.558 C296.542,12.558 300.357,14.159 303.538,17.359 C306.718,20.56 308.307,24.396 308.307,28.866 C308.307,33.4 306.696,37.262 303.474,40.452 C300.252,43.643 296.363,45.237 291.809,45.237 C287.254,45.237 283.361,43.637 280.129,40.436 C276.897,37.236 275.28,33.379 275.28,28.866 C275.28,24.269 276.896,20.403 280.129,17.265 C283.362,14.128 287.349,12.558 292.093,12.558 L292.093,12.558 Z M291.779,24.176 C290.52,24.176 289.449,24.633 288.567,25.546 C287.685,26.459 287.244,27.577 287.244,28.899 C287.244,30.2 287.691,31.313 288.583,32.236 C289.475,33.159 290.54,33.621 291.779,33.621 C293.038,33.621 294.114,33.159 295.006,32.236 C295.898,31.313 296.344,30.2 296.344,28.899 C296.344,27.576 295.904,26.459 295.022,25.546 C294.14,24.632 293.059,24.176 291.779,24.176 L291.779,24.176 Z"></path>
                            <path d="M329.056,13.22 L340.83,13.22 L340.83,20.114 C340.83,22.087 340.542,23.677 339.964,24.884 C339.387,26.091 338.395,27.156 336.989,28.08 C338.415,29.046 339.413,30.105 339.98,31.26 C340.546,32.415 340.83,33.926 340.83,35.793 L340.83,44.609 L329.056,44.609 L329.056,35.133 C329.056,32.971 328.3,31.89 326.789,31.89 C325.319,31.89 324.585,32.824 324.585,34.692 L324.585,44.609 L312.811,44.609 L312.811,36.234 C312.811,34.303 313.162,32.729 313.866,31.512 C314.568,30.295 315.791,29.151 317.534,28.08 C315.791,26.946 314.569,25.75 313.866,24.491 C313.163,23.232 312.811,21.626 312.811,19.673 L312.811,13.219 L324.585,13.219 L324.585,21.153 C324.585,21.971 324.795,22.644 325.215,23.168 C325.635,23.693 326.17,23.955 326.821,23.955 C328.311,23.955 329.057,23.021 329.057,21.153 L329.057,13.22 L329.056,13.22 Z"></path>
                        </g>
                    </g>
                </g>
            </g>
        </g>
    </g>
</svg>